<?xml version="1.0" encoding="iso-8859-1"?>
<!-- Generator: Adobe Illustrator 19.0.0, SVG Export Plug-In . SVG Version: 6.00 Build 0)  -->
<svg version="1.1" id="Capa_1" xmlns="http://www.w3.org/2000/svg" xmlns:xlink="http://www.w3.org/1999/xlink" x="0px" y="0px"
	 viewBox="0 0 498.834 498.834" style="enable-background:new 0 0 498.834 498.834;" xml:space="preserve">
<path style="fill:#08A650;" d="M482.743,65.097v130.194c0,8.777-7.314,17.554-17.554,17.554h-29.257v70.217l-64.366-70.217H254.537
	c-8.777,0-17.554-7.314-17.554-17.554V65.097c0-8.777,7.314-17.554,17.554-17.554h212.114
	C475.429,49.006,482.743,56.32,482.743,65.097z"/>
<g>
	<path style="fill:#FFFFFF;" d="M422.766,119.223H294.034c-8.777,0-14.629-5.851-14.629-14.629s5.851-14.629,14.629-14.629h128.731
		c8.777,0,14.629,5.851,14.629,14.629C437.394,113.371,430.08,119.223,422.766,119.223z"/>
	<path style="fill:#FFFFFF;" d="M422.766,166.034H294.034c-8.777,0-14.629-5.851-14.629-14.629s5.851-14.629,14.629-14.629h128.731
		c8.777,0,14.629,5.851,14.629,14.629S430.08,166.034,422.766,166.034z"/>
</g>
<path d="M425.691,294.766l-59.977-67.291H254.537c-17.554,0-32.183-14.629-32.183-32.183V65.097
	c0-17.554,14.629-32.183,32.183-32.183h212.114c17.554,0,32.183,14.629,32.183,32.183v130.194c0,17.554-14.629,32.183-32.183,32.183
	h-14.629v55.589c0,5.851-4.389,11.703-8.777,13.166C435.931,300.617,430.08,299.154,425.691,294.766z M254.537,63.634
	c-1.463,0-2.926,1.463-2.926,2.926v130.194c0,1.463,1.463,2.926,2.926,2.926h117.029c4.389,0,7.314,1.463,10.24,4.389l39.497,43.886
	v-35.109c0-8.777,5.851-14.629,14.629-14.629h29.257c1.463,0,2.926-1.463,2.926-2.926V65.097c0-1.463-1.463-2.926-2.926-2.926
	H254.537V63.634z"/>
<path style="fill:#A5C3D1;" d="M444.709,470.309c-2.926-117.029-98.011-210.651-215.04-210.651S17.554,353.28,14.629,470.309
	H444.709z"/>
<g style="opacity:0.1;">
	<path style="fill:#030303;" d="M421.303,376.686c-35.109-24.869-78.994-40.96-125.806-40.96
		c-90.697,0-168.229,55.589-200.411,134.583H14.629c2.926-117.029,98.011-210.651,215.04-210.651
		C313.051,259.657,386.194,307.931,421.303,376.686z"/>
</g>
<circle style="fill:#F6E272;" cx="229.669" cy="144.091" r="115.566"/>
<path style="fill:#FFCA19;" d="M332.069,88.503c-16.091-10.24-36.571-14.629-57.051-14.629c-64.366,0-115.566,51.2-115.566,115.566
	c0,20.48,4.389,38.034,13.166,54.126c-35.109-20.48-58.514-57.051-58.514-100.937c0-64.366,51.2-115.566,115.566-115.566
	C273.554,28.526,313.051,51.931,332.069,88.503z"/>
<path d="M229.669,274.286c-71.68,0-130.194-58.514-130.194-130.194S157.989,13.897,229.669,13.897s130.194,58.514,130.194,130.194
	S301.349,274.286,229.669,274.286z M229.669,43.154c-55.589,0-100.937,45.349-100.937,100.937s45.349,100.937,100.937,100.937
	s100.937-45.349,100.937-100.937S285.257,43.154,229.669,43.154z"/>
<path d="M444.709,484.937H14.629c-4.389,0-7.314-1.463-10.24-4.389S0,473.234,0,470.309
	c2.926-124.343,105.326-225.28,229.669-225.28s228.206,100.937,229.669,225.28c0,4.389-1.463,7.314-4.389,10.24
	C453.486,483.474,449.097,484.937,444.709,484.937z M30.72,455.68h399.36c-10.24-100.937-96.549-181.394-200.411-181.394
	S39.497,354.743,30.72,455.68z"/>
<g>
</g>
<g>
</g>
<g>
</g>
<g>
</g>
<g>
</g>
<g>
</g>
<g>
</g>
<g>
</g>
<g>
</g>
<g>
</g>
<g>
</g>
<g>
</g>
<g>
</g>
<g>
</g>
<g>
</g>
</svg>
